# xmcd CD database file
#
# Track frame offsets:
#	150
#	30690
#	62367
#	98912
#	123797
#	141120
#	157560
#	178377
#	209037
#
# Disc length: 3223 seconds
#
# Revision: 0
# Processed by: cddbd v1.5.1PL0 Copyright (c) Steve Scherf et al.
# Submitted via: CDex 1.51
#
DISCID=750c9509
DTITLE=Tim Garlang/Geoff Keezer/Joe Locke - Storms/Nocturnes
DYEAR=2001
DGENRE=Jazz
TTITLE0=Blues for Little Joe.
TTITLE1=I'll Meet You There
TTITLE2=Hibiscus
TTITLE3=Blackbird
TTITLE4=Gold Rush
TTITLE5=Turn and Return
TTITLE6=Night Forest
TTITLE7=The Lost Lenore
TTITLE8=Breath of the Volcano
EXTD=YEAR: 2001
EXTT0=
EXTT1=
EXTT2=
EXTT3=
EXTT4=
EXTT5=
EXTT6=
EXTT7=
EXTT8=
PLAYORDER=
